<?xml version="1.0" encoding="UTF-8" standalone="no"?>
<!DOCTYPE svg PUBLIC "-//W3C//DTD SVG 1.1//EN" "http://www.w3.org/Graphics/SVG/1.1/DTD/svg11.dtd">
<svg width="100%" height="100%" viewBox="0 0 206 197" version="1.1" xmlns="http://www.w3.org/2000/svg" xmlns:xlink="http://www.w3.org/1999/xlink" xml:space="preserve" xmlns:serif="http://www.serif.com/" style="fill-rule:evenodd;clip-rule:evenodd;stroke-linejoin:round;stroke-miterlimit:2;">
    <g transform="matrix(1,0,0,1,-2827.07,-395.088)">
        <g transform="matrix(1,0,0,1,-0.0643455,0)">
            <g transform="matrix(1,0,0,1,2240.43,-343.896)">
                <path d="M777.641,741.741C778.237,741.241 779.068,741.132 779.772,741.46C780.477,741.789 780.927,742.495 780.927,743.273C780.927,752.939 780.927,775.965 780.927,780.879C780.927,781.47 780.665,782.031 780.212,782.411C768.838,791.955 625.151,912.517 601.498,932.363C600.903,932.863 600.072,932.972 599.368,932.644C598.663,932.315 598.213,931.608 598.213,930.831C598.213,921.165 598.213,898.139 598.213,893.225C598.213,892.634 598.474,892.073 598.927,891.693C610.302,882.149 753.988,761.587 777.641,741.741Z" style="fill:rgb(27,28,30);"/>
            </g>
            <g transform="matrix(1,0,0,1,2629.93,63.8511)">
                <path d="M283.048,341.565C283.413,341.26 283.873,341.092 284.349,341.092C289.226,341.092 317.049,341.092 329.096,341.092C329.946,341.092 330.706,341.624 330.997,342.423C331.288,343.223 331.048,344.119 330.396,344.665C314.721,357.818 260.611,403.219 250.337,411.84C249.903,412.204 249.641,412.735 249.616,413.301C249.592,413.868 249.806,414.419 250.207,414.82C252.769,417.382 257.834,422.447 260.395,425.009C260.797,425.41 261.011,425.961 260.986,426.527C260.961,427.094 260.7,427.625 260.265,427.989C255.158,432.274 239.957,445.029 235.228,448.997C234.424,449.671 233.238,449.62 232.497,448.878C226.879,443.26 204.85,421.231 198.77,415.151C198.369,414.75 198.155,414.199 198.179,413.632C198.204,413.066 198.466,412.535 198.9,412.171C210.351,402.563 276.263,347.259 283.048,341.565Z" style="fill:rgb(27,28,30);"/>
            </g>
            <g transform="matrix(-1,-1.22465e-16,1.22465e-16,-1,3230.2,922.339)">
                <path d="M283.048,341.565C283.413,341.26 283.873,341.092 284.349,341.092C289.226,341.092 317.049,341.092 329.096,341.092C329.946,341.092 330.706,341.624 330.997,342.423C331.288,343.223 331.048,344.119 330.396,344.665C314.721,357.818 260.611,403.219 250.337,411.84C249.903,412.204 249.641,412.735 249.616,413.301C249.592,413.868 249.806,414.419 250.207,414.82C252.769,417.382 257.834,422.447 260.395,425.009C260.797,425.41 261.011,425.961 260.986,426.527C260.961,427.094 260.7,427.625 260.265,427.989C255.158,432.274 239.957,445.029 235.228,448.997C234.424,449.671 233.238,449.62 232.497,448.878C226.879,443.26 204.85,421.231 198.77,415.151C198.369,414.75 198.155,414.199 198.179,413.632C198.204,413.066 198.466,412.535 198.9,412.171C210.351,402.563 276.263,347.259 283.048,341.565Z" style="fill:rgb(27,28,30);"/>
            </g>
        </g>
    </g>
</svg>
