<svg width="148" height="148" viewBox="0 0 148 148" fill="none" xmlns="http://www.w3.org/2000/svg">
<path d="M74 148C114.869 148 148 114.869 148 74C148 33.1309 114.869 0 74 0C33.1309 0 0 33.1309 0 74C0 114.869 33.1309 148 74 148Z" fill="#2D303B"/>
<path d="M74.0002 135.667C108.058 135.667 135.667 108.058 135.667 74C135.667 39.9425 108.058 12.3334 74.0002 12.3334C39.9426 12.3334 12.3335 39.9425 12.3335 74C12.3335 108.058 39.9426 135.667 74.0002 135.667Z" fill="#484C5C"/>
<path d="M107.3 63.0234C88.7999 56.24 70.5466 48.3467 52.6633 39.22C41.9333 67.5867 36.0133 98.2967 35.7666 130.117C45.7566 125.307 55.8699 120.867 66.1066 116.92C75.6033 123.703 85.4699 129.747 95.3366 134.803C95.0899 109.52 99.2833 85.2234 107.3 63.0234Z" fill="#CF1F4B"/>
<path d="M41.4399 77.8234C42.3033 78.5634 43.2899 79.1801 44.3999 79.4267C48.3466 80.4134 51.1833 84.7301 51.3066 89.9101C51.6766 97.8034 58.4599 102.243 63.7633 98.5434C67.3399 96.2001 71.6566 97.3101 74.3699 100.763C78.5633 106.19 85.9633 104.587 88.4299 98.5434C90.1566 94.5967 94.2266 92.6234 98.0499 93.6101C98.2966 93.7334 98.5433 93.7334 98.7899 93.7334C100.763 83.1267 103.6 72.7667 107.177 62.9001C88.6766 56.1167 70.4233 48.2234 52.5399 39.0967C47.9766 51.6767 44.1533 64.5034 41.4399 77.8234Z" fill="#691026"/>
<path d="M102.737 61.2967C87.3199 55.5 72.1499 48.84 57.2266 41.44C47.1132 68.3267 41.3166 97.5567 40.8232 127.773C49.2099 123.95 57.5966 120.25 66.1066 116.92C73.9999 122.593 82.1399 127.65 90.4032 132.213C90.4032 107.177 94.7199 83.25 102.737 61.2967Z" fill="#FB4C78"/>
<path d="M51.3065 89.91C51.6765 97.8033 58.3365 100.763 63.7632 97.0633C67.3398 94.72 71.6565 95.83 74.3698 99.4067C78.4398 104.833 86.0865 104.71 88.5532 98.5433C89.6632 96.0767 91.6365 94.35 93.9798 93.61C96.0765 82.3867 99.0365 71.5333 102.737 61.1733C87.3198 55.5 72.1498 48.84 57.2265 41.44C52.5398 53.8967 48.8398 66.7233 46.0032 80.0433C49.0865 81.77 51.1832 85.47 51.3065 89.91Z" fill="#CF1F4B"/>
<path d="M91.7599 17.02C97.1866 14.1833 103.847 18.0066 104.093 24.1733C104.34 28.2433 107.3 31.45 111.247 32.0666C117.29 33.0533 120.373 39.96 117.043 45.14C114.823 48.47 115.317 52.91 118.153 55.7466C122.47 60.0633 120.99 67.4633 115.193 69.6833C111.493 71.1633 109.273 74.9866 109.89 78.9333C110.877 84.9766 105.203 90.0333 99.2832 88.5533C95.3366 87.5666 91.2666 89.2933 89.5399 92.9933C86.7032 98.5433 79.1799 99.2833 75.3566 94.4733C72.7666 91.39 68.4499 90.4033 64.8732 92.2533C59.4466 95.09 52.7866 91.2666 52.5399 85.1C52.2932 81.03 49.3332 77.8233 45.3866 77.2066C39.3432 76.22 36.2599 69.3133 39.5899 64.1333C41.8099 60.8033 41.3166 56.3633 38.4799 53.5266C34.1632 49.21 35.6432 41.81 41.4399 39.59C45.1399 38.11 47.3599 34.2866 46.7432 30.34C45.7566 24.2966 51.4299 19.24 57.3499 20.72C61.2966 21.7066 65.3666 19.98 67.0932 16.28C69.9299 10.73 77.4532 9.98996 81.2766 14.8C83.7432 17.8833 88.1832 18.7466 91.7599 17.02Z" fill="#1AC491"/>
<path d="M107.335 60.6951C110.698 44.6973 100.455 29.0025 84.4575 25.6398C68.4597 22.2771 52.7649 32.5198 49.4022 48.5176C46.0395 64.5154 56.2822 80.2102 72.28 83.5729C88.2778 86.9356 103.973 76.6929 107.335 60.6951Z" fill="#089C70"/>
<path d="M50.0734 51.1833C53.4034 35.15 69.0667 24.9133 85.1001 28.2433C95.9534 30.5866 104.217 38.48 107.3 48.3467C104.957 37.2467 96.2001 27.9967 84.4834 25.53C68.4501 22.2 52.6634 32.56 49.3334 48.47C48.2234 53.65 48.5934 58.7067 50.0734 63.3933C49.2101 59.4467 49.2101 55.3767 50.0734 51.1833Z" fill="#07825D"/>
<path d="M75.7267 55.5L69.6834 46.1267C69.3134 45.51 68.5734 45.3867 67.9567 45.7567L62.4067 49.3334C61.7901 49.7034 61.6667 50.4434 62.0367 51.06L73.1367 67.9567C73.5067 68.5734 74.2467 68.6967 74.8634 68.3267L96.8167 54.02C97.4334 53.65 97.5567 52.91 97.1867 52.2934L93.6101 46.7434C93.2401 46.1267 92.5001 46.0034 91.8834 46.3734L77.4534 55.7467C76.8367 56.24 76.0967 55.9934 75.7267 55.5Z" fill="white"/>
<path d="M22.6931 56.1167L23.4331 54.2667C23.6797 53.7733 24.4197 53.7733 24.5431 54.2667L25.2831 56.1167C25.8997 57.5967 27.0097 58.7067 28.4897 59.3233L30.3397 60.0633C30.8331 60.31 30.8331 61.05 30.3397 61.1733L28.3664 61.79C26.8864 62.4067 25.7764 63.5167 25.1597 64.9967L24.4197 66.8467C24.1731 67.34 23.4331 67.34 23.3097 66.8467L22.5697 64.9967C21.9531 63.5167 20.8431 62.4067 19.3631 61.79L17.5131 61.05C17.0197 60.8033 17.0197 60.0633 17.5131 59.94L19.3631 59.2C20.9664 58.7067 22.0764 57.4733 22.6931 56.1167Z" fill="#FFBD61"/>
<path d="M110.26 105.45L111 103.6C111.247 103.107 111.987 103.107 112.11 103.6L112.85 105.45C113.467 106.93 114.577 108.04 116.057 108.657L117.907 109.397C118.4 109.643 118.4 110.383 117.907 110.507L115.933 111.123C114.453 111.74 113.343 112.85 112.727 114.33L111.987 116.18C111.74 116.673 111 116.673 110.877 116.18L110.137 114.33C109.52 112.85 108.41 111.74 106.93 111.123L105.08 110.383C104.587 110.137 104.587 109.397 105.08 109.273L106.93 108.533C108.533 108.04 109.643 106.807 110.26 105.45Z" fill="#FFBD61"/>
<path d="M23.4335 92.5C24.7958 92.5 25.9001 91.3956 25.9001 90.0333C25.9001 88.671 24.7958 87.5667 23.4335 87.5667C22.0712 87.5667 20.9668 88.671 20.9668 90.0333C20.9668 91.3956 22.0712 92.5 23.4335 92.5Z" fill="white"/>
<path d="M125.8 83.8667C127.162 83.8667 128.267 82.7623 128.267 81.4C128.267 80.0377 127.162 78.9333 125.8 78.9333C124.438 78.9333 123.333 80.0377 123.333 81.4C123.333 82.7623 124.438 83.8667 125.8 83.8667Z" fill="white"/>
</svg>
