<svg width="128" height="128" viewBox="0 0 128 128" fill="none" xmlns="http://www.w3.org/2000/svg">
<path d="M106.667 35.2V26.6666C106.667 23.8377 105.543 21.1245 103.543 19.1242C101.542 17.1238 98.829 16 96 16H82.6667L73.4934 8.66663C70.7981 6.51018 67.4491 5.33533 63.9974 5.33533C60.5456 5.33533 57.1966 6.51018 54.5014 8.66663L45.3334 16H32C29.1711 16 26.458 17.1238 24.4576 19.1242C22.4572 21.1245 21.3334 23.8377 21.3334 26.6666V35.2L5.33337 48V112C5.33337 114.829 6.45718 117.542 8.45757 119.542C10.458 121.543 13.1711 122.667 16 122.667H112C114.829 122.667 117.542 121.543 119.543 119.542C121.543 117.542 122.667 114.829 122.667 112V48L106.667 35.2Z" fill="#FFA526"/>
<path opacity="0.8" d="M37.3334 32H90.6667V37.3333H37.3334V32Z" fill="white"/>
<path opacity="0.8" d="M37.3334 48H90.6667V53.3333H37.3334V48Z" fill="white"/>
<path opacity="0.8" d="M48 64H80V69.3333H48V64Z" fill="white"/>
<path opacity="0.1" d="M64 89.0667L112 122.667C114.829 122.667 117.542 121.543 119.542 119.542C121.543 117.542 122.667 114.829 122.667 112V48L64 89.0667Z" fill="white"/>
<path opacity="0.4" d="M64 89.0667L106.667 59.2V26.6667C106.667 23.8377 105.543 21.1246 103.543 19.1242C101.542 17.1238 98.829 16 96 16H32C29.1711 16 26.458 17.1238 24.4576 19.1242C22.4572 21.1246 21.3334 23.8377 21.3334 26.6667V59.2L64 89.0667ZM80 69.3333H48V64H80V69.3333ZM37.3334 32H90.6667V37.3333H37.3334V32ZM37.3334 48H90.6667V53.3333H37.3334V48Z" fill="white"/>
<path opacity="0.2" d="M5.33337 48L112 122.667H16C13.1711 122.667 10.458 121.543 8.45757 119.542C6.45718 117.542 5.33337 114.829 5.33337 112V48Z" fill="white"/>
</svg>
